<svg width="142" height="44" viewBox="0 0 142 44" fill="none" xmlns="http://www.w3.org/2000/svg">
<path d="M0 16C0 8.45753 0 4.68629 2.34315 2.34315C4.68629 0 8.45753 0 16 0H126C133.542 0 137.314 0 139.657 2.34315C142 4.68629 142 8.45753 142 16V28C142 35.5425 142 39.3137 139.657 41.6569C137.314 44 133.542 44 126 44H16C8.45753 44 4.68629 44 2.34315 41.6569C0 39.3137 0 35.5425 0 28V16Z" fill="#24292E"/>
<path d="M72.89 19.09C72.542 18.358 72.038 17.794 71.378 17.398C70.718 16.99 69.95 16.786 69.074 16.786C68.198 16.786 67.406 16.99 66.698 17.398C66.002 17.794 65.45 18.37 65.042 19.126C64.646 19.87 64.448 20.734 64.448 21.718C64.448 22.702 64.646 23.566 65.042 24.31C65.45 25.054 66.002 25.63 66.698 26.038C67.406 26.434 68.198 26.632 69.074 26.632C70.298 26.632 71.306 26.266 72.098 25.534C72.89 24.802 73.352 23.812 73.484 22.564H68.48V21.232H75.23V22.492C75.134 23.524 74.81 24.472 74.258 25.336C73.706 26.188 72.98 26.866 72.08 27.37C71.18 27.862 70.178 28.108 69.074 28.108C67.91 28.108 66.848 27.838 65.888 27.298C64.928 26.746 64.166 25.984 63.602 25.012C63.05 24.04 62.774 22.942 62.774 21.718C62.774 20.494 63.05 19.396 63.602 18.424C64.166 17.44 64.928 16.678 65.888 16.138C66.848 15.586 67.91 15.31 69.074 15.31C70.406 15.31 71.582 15.64 72.602 16.3C73.634 16.96 74.384 17.89 74.852 19.09H72.89ZM78.2418 16.534C77.9298 16.534 77.6658 16.426 77.4498 16.21C77.2338 15.994 77.1258 15.73 77.1258 15.418C77.1258 15.106 77.2338 14.842 77.4498 14.626C77.6658 14.41 77.9298 14.302 78.2418 14.302C78.5418 14.302 78.7938 14.41 78.9978 14.626C79.2138 14.842 79.3218 15.106 79.3218 15.418C79.3218 15.73 79.2138 15.994 78.9978 16.21C78.7938 16.426 78.5418 16.534 78.2418 16.534ZM79.0338 18.136V28H77.3958V18.136H79.0338ZM83.8235 19.486V25.3C83.8235 25.78 83.9255 26.122 84.1295 26.326C84.3335 26.518 84.6875 26.614 85.1915 26.614H86.3975V28H84.9215C84.0095 28 83.3255 27.79 82.8695 27.37C82.4135 26.95 82.1855 26.26 82.1855 25.3V19.486H80.9075V18.136H82.1855V15.652H83.8235V18.136H86.3975V19.486H83.8235ZM98.0481 15.454V28H96.4101V22.312H90.0201V28H88.3821V15.454H90.0201V20.962H96.4101V15.454H98.0481ZM109.593 18.136V28H107.955V26.542C107.643 27.046 107.205 27.442 106.641 27.73C106.089 28.006 105.477 28.144 104.805 28.144C104.037 28.144 103.347 27.988 102.735 27.676C102.123 27.352 101.637 26.872 101.277 26.236C100.929 25.6 100.755 24.826 100.755 23.914V18.136H102.375V23.698C102.375 24.67 102.621 25.42 103.113 25.948C103.605 26.464 104.277 26.722 105.129 26.722C106.005 26.722 106.695 26.452 107.199 25.912C107.703 25.372 107.955 24.586 107.955 23.554V18.136H109.593ZM113.997 19.972C114.333 19.384 114.825 18.904 115.473 18.532C116.121 18.16 116.859 17.974 117.687 17.974C118.575 17.974 119.373 18.184 120.081 18.604C120.789 19.024 121.347 19.618 121.755 20.386C122.163 21.142 122.367 22.024 122.367 23.032C122.367 24.028 122.163 24.916 121.755 25.696C121.347 26.476 120.783 27.082 120.063 27.514C119.355 27.946 118.563 28.162 117.687 28.162C116.835 28.162 116.085 27.976 115.437 27.604C114.801 27.232 114.321 26.758 113.997 26.182V28H112.359V14.68H113.997V19.972ZM120.693 23.032C120.693 22.288 120.543 21.64 120.243 21.088C119.943 20.536 119.535 20.116 119.019 19.828C118.515 19.54 117.957 19.396 117.345 19.396C116.745 19.396 116.187 19.546 115.671 19.846C115.167 20.134 114.759 20.56 114.447 21.124C114.147 21.676 113.997 22.318 113.997 23.05C113.997 23.794 114.147 24.448 114.447 25.012C114.759 25.564 115.167 25.99 115.671 26.29C116.187 26.578 116.745 26.722 117.345 26.722C117.957 26.722 118.515 26.578 119.019 26.29C119.535 25.99 119.943 25.564 120.243 25.012C120.543 24.448 120.693 23.788 120.693 23.032Z" fill="white"/>
<path fill-rule="evenodd" clip-rule="evenodd" d="M30.026 12C24.517 12 20.052 16.465 20.052 21.974C20.052 26.38 22.909 30.119 26.873 31.439C27.372 31.529 27.552 31.222 27.552 30.958C27.552 30.721 27.544 30.093 27.541 29.262C24.766 29.864 24.18 27.924 24.18 27.924C23.728 26.772 23.073 26.465 23.073 26.465C22.168 25.846 23.142 25.86 23.142 25.86C24.144 25.93 24.669 26.888 24.669 26.888C25.559 28.412 27.005 27.972 27.571 27.717C27.662 27.072 27.922 26.632 28.206 26.383C25.992 26.132 23.664 25.276 23.664 21.453C23.664 20.366 24.053 19.474 24.688 18.778C24.587 18.525 24.242 17.51 24.787 16.138C24.787 16.138 25.624 15.869 27.529 17.159C28.3426 16.9377 29.1818 16.8247 30.025 16.823C30.8682 16.8244 31.7075 16.9373 32.521 17.159C34.427 15.868 35.263 16.138 35.263 16.138C35.808 17.51 35.466 18.525 35.362 18.778C36.002 19.474 36.386 20.365 36.386 21.453C36.386 25.286 34.056 26.128 31.834 26.375C32.189 26.683 32.509 27.291 32.509 28.221C32.509 29.555 32.497 30.631 32.497 30.958C32.497 31.225 32.675 31.535 33.184 31.437C37.146 30.115 40 26.379 40 21.974C40 16.465 35.535 12 30.026 12Z" fill="white"/>
</svg>
