<svg width="158" height="44" viewBox="0 0 158 44" fill="none" xmlns="http://www.w3.org/2000/svg">
<path d="M0 16C0 8.45753 0 4.68629 2.34315 2.34315C4.68629 0 8.45753 0 16 0H142C149.542 0 153.314 0 155.657 2.34315C158 4.68629 158 8.45753 158 16V28C158 35.5425 158 39.3137 155.657 41.6569C153.314 44 149.542 44 142 44H16C8.45753 44 4.68629 44 2.34315 41.6569C0 39.3137 0 35.5425 0 28V16Z" fill="#24292E"/>
<path d="M75.89 19.09C75.542 18.358 75.038 17.794 74.378 17.398C73.718 16.99 72.95 16.786 72.074 16.786C71.198 16.786 70.406 16.99 69.698 17.398C69.002 17.794 68.45 18.37 68.042 19.126C67.646 19.87 67.448 20.734 67.448 21.718C67.448 22.702 67.646 23.566 68.042 24.31C68.45 25.054 69.002 25.63 69.698 26.038C70.406 26.434 71.198 26.632 72.074 26.632C73.298 26.632 74.306 26.266 75.098 25.534C75.89 24.802 76.352 23.812 76.484 22.564H71.48V21.232H78.23V22.492C78.134 23.524 77.81 24.472 77.258 25.336C76.706 26.188 75.98 26.866 75.08 27.37C74.18 27.862 73.178 28.108 72.074 28.108C70.91 28.108 69.848 27.838 68.888 27.298C67.928 26.746 67.166 25.984 66.602 25.012C66.05 24.04 65.774 22.942 65.774 21.718C65.774 20.494 66.05 19.396 66.602 18.424C67.166 17.44 67.928 16.678 68.888 16.138C69.848 15.586 70.91 15.31 72.074 15.31C73.406 15.31 74.582 15.64 75.602 16.3C76.634 16.96 77.384 17.89 77.852 19.09H75.89ZM81.2418 16.534C80.9298 16.534 80.6658 16.426 80.4498 16.21C80.2338 15.994 80.1258 15.73 80.1258 15.418C80.1258 15.106 80.2338 14.842 80.4498 14.626C80.6658 14.41 80.9298 14.302 81.2418 14.302C81.5418 14.302 81.7938 14.41 81.9978 14.626C82.2138 14.842 82.3218 15.106 82.3218 15.418C82.3218 15.73 82.2138 15.994 81.9978 16.21C81.7938 16.426 81.5418 16.534 81.2418 16.534ZM82.0338 18.136V28H80.3958V18.136H82.0338ZM86.8235 19.486V25.3C86.8235 25.78 86.9255 26.122 87.1295 26.326C87.3335 26.518 87.6875 26.614 88.1915 26.614H89.3975V28H87.9215C87.0095 28 86.3255 27.79 85.8695 27.37C85.4135 26.95 85.1855 26.26 85.1855 25.3V19.486H83.9075V18.136H85.1855V15.652H86.8235V18.136H89.3975V19.486H86.8235ZM101.048 15.454V28H99.4101V22.312H93.0201V28H91.3821V15.454H93.0201V20.962H99.4101V15.454H101.048ZM112.593 18.136V28H110.955V26.542C110.643 27.046 110.205 27.442 109.641 27.73C109.089 28.006 108.477 28.144 107.805 28.144C107.037 28.144 106.347 27.988 105.735 27.676C105.123 27.352 104.637 26.872 104.277 26.236C103.929 25.6 103.755 24.826 103.755 23.914V18.136H105.375V23.698C105.375 24.67 105.621 25.42 106.113 25.948C106.605 26.464 107.277 26.722 108.129 26.722C109.005 26.722 109.695 26.452 110.199 25.912C110.703 25.372 110.955 24.586 110.955 23.554V18.136H112.593ZM116.997 19.972C117.333 19.384 117.825 18.904 118.473 18.532C119.121 18.16 119.859 17.974 120.687 17.974C121.575 17.974 122.373 18.184 123.081 18.604C123.789 19.024 124.347 19.618 124.755 20.386C125.163 21.142 125.367 22.024 125.367 23.032C125.367 24.028 125.163 24.916 124.755 25.696C124.347 26.476 123.783 27.082 123.063 27.514C122.355 27.946 121.563 28.162 120.687 28.162C119.835 28.162 119.085 27.976 118.437 27.604C117.801 27.232 117.321 26.758 116.997 26.182V28H115.359V14.68H116.997V19.972ZM123.693 23.032C123.693 22.288 123.543 21.64 123.243 21.088C122.943 20.536 122.535 20.116 122.019 19.828C121.515 19.54 120.957 19.396 120.345 19.396C119.745 19.396 119.187 19.546 118.671 19.846C118.167 20.134 117.759 20.56 117.447 21.124C117.147 21.676 116.997 22.318 116.997 23.05C116.997 23.794 117.147 24.448 117.447 25.012C117.759 25.564 118.167 25.99 118.671 26.29C119.187 26.578 119.745 26.722 120.345 26.722C120.957 26.722 121.515 26.578 122.019 26.29C122.535 25.99 122.943 25.564 123.243 25.012C123.543 24.448 123.693 23.788 123.693 23.032Z" fill="white"/>
<path fill-rule="evenodd" clip-rule="evenodd" d="M33.026 12C27.517 12 23.052 16.465 23.052 21.974C23.052 26.38 25.909 30.119 29.873 31.439C30.372 31.529 30.552 31.222 30.552 30.958C30.552 30.721 30.544 30.093 30.541 29.262C27.766 29.864 27.18 27.924 27.18 27.924C26.728 26.772 26.073 26.465 26.073 26.465C25.168 25.846 26.142 25.86 26.142 25.86C27.144 25.93 27.669 26.888 27.669 26.888C28.559 28.412 30.005 27.972 30.571 27.717C30.662 27.072 30.922 26.632 31.206 26.383C28.992 26.132 26.664 25.276 26.664 21.453C26.664 20.366 27.053 19.474 27.688 18.778C27.587 18.525 27.242 17.51 27.787 16.138C27.787 16.138 28.624 15.869 30.529 17.159C31.3426 16.9377 32.1818 16.8247 33.025 16.823C33.8682 16.8244 34.7075 16.9373 35.521 17.159C37.427 15.868 38.263 16.138 38.263 16.138C38.808 17.51 38.466 18.525 38.362 18.778C39.002 19.474 39.386 20.365 39.386 21.453C39.386 25.286 37.056 26.128 34.834 26.375C35.189 26.683 35.509 27.291 35.509 28.221C35.509 29.555 35.497 30.631 35.497 30.958C35.497 31.225 35.675 31.535 36.184 31.437C40.146 30.115 43 26.379 43 21.974C43 16.465 38.535 12 33.026 12Z" fill="white"/>
</svg>
