<svg width="126" height="44" viewBox="0 0 126 44" fill="none" xmlns="http://www.w3.org/2000/svg">
<path d="M0 16C0 8.45753 0 4.68629 2.34315 2.34315C4.68629 0 8.45753 0 16 0H110C117.542 0 121.314 0 123.657 2.34315C126 4.68629 126 8.45753 126 16V28C126 35.5425 126 39.3137 123.657 41.6569C121.314 44 117.542 44 110 44H16C8.45753 44 4.68629 44 2.34315 41.6569C0 39.3137 0 35.5425 0 28V16Z" fill="#EA4335"/>
<path d="M80.112 15.544V28H78.474V18.712L74.334 28H73.182L69.024 18.694V28H67.386V15.544H69.15L73.758 25.84L78.366 15.544H80.112ZM82.2779 23.032C82.2779 22.024 82.4819 21.142 82.8899 20.386C83.2979 19.618 83.8559 19.024 84.5639 18.604C85.2839 18.184 86.0819 17.974 86.9579 17.974C87.8219 17.974 88.5719 18.16 89.2079 18.532C89.8439 18.904 90.3179 19.372 90.6299 19.936V18.136H92.2859V28H90.6299V26.164C90.3059 26.74 89.8199 27.22 89.1719 27.604C88.5359 27.976 87.7919 28.162 86.9399 28.162C86.0639 28.162 85.2719 27.946 84.5639 27.514C83.8559 27.082 83.2979 26.476 82.8899 25.696C82.4819 24.916 82.2779 24.028 82.2779 23.032ZM90.6299 23.05C90.6299 22.306 90.4799 21.658 90.1799 21.106C89.8799 20.554 89.4719 20.134 88.9559 19.846C88.4519 19.546 87.8939 19.396 87.2819 19.396C86.6699 19.396 86.1119 19.54 85.6079 19.828C85.1039 20.116 84.7019 20.536 84.4019 21.088C84.1019 21.64 83.9519 22.288 83.9519 23.032C83.9519 23.788 84.1019 24.448 84.4019 25.012C84.7019 25.564 85.1039 25.99 85.6079 26.29C86.1119 26.578 86.6699 26.722 87.2819 26.722C87.8939 26.722 88.4519 26.578 88.9559 26.29C89.4719 25.99 89.8799 25.564 90.1799 25.012C90.4799 24.448 90.6299 23.794 90.6299 23.05ZM95.9 16.534C95.588 16.534 95.324 16.426 95.108 16.21C94.892 15.994 94.784 15.73 94.784 15.418C94.784 15.106 94.892 14.842 95.108 14.626C95.324 14.41 95.588 14.302 95.9 14.302C96.2 14.302 96.452 14.41 96.656 14.626C96.872 14.842 96.98 15.106 96.98 15.418C96.98 15.73 96.872 15.994 96.656 16.21C96.452 16.426 96.2 16.534 95.9 16.534ZM96.692 18.136V28H95.054V18.136H96.692ZM101.122 14.68V28H99.4837V14.68H101.122Z" fill="white"/>
<path d="M40.73 15.41L39.45 16.41L34 20.46L28.55 16.37L27.27 15.37C26.9685 15.1205 26.6004 14.965 26.2113 14.9228C25.8222 14.8805 25.4293 14.9532 25.0812 15.1321C24.7331 15.3109 24.4451 15.588 24.253 15.9289C24.0608 16.2698 23.9728 16.6596 24 17.05V28.64C24 29.0007 24.1433 29.3466 24.3983 29.6017C24.6534 29.8567 24.9993 30 25.36 30H28.55V22.28L34 26.37L39.45 22.28V30H42.64C43.0007 30 43.3466 29.8567 43.6017 29.6017C43.8567 29.3466 44 29.0007 44 28.64V17.05C44.0188 16.663 43.9247 16.2788 43.7293 15.9442C43.5338 15.6096 43.2453 15.3391 42.899 15.1653C42.5526 14.9916 42.1632 14.9223 41.7782 14.9657C41.3931 15.0091 41.029 15.1635 40.73 15.41Z" fill="white"/>
</svg>
