<svg width="158" height="44" viewBox="0 0 158 44" fill="none" xmlns="http://www.w3.org/2000/svg">
<path d="M0 16C0 8.45753 0 4.68629 2.34315 2.34315C4.68629 0 8.45753 0 16 0H142C149.542 0 153.314 0 155.657 2.34315C158 4.68629 158 8.45753 158 16V28C158 35.5425 158 39.3137 155.657 41.6569C153.314 44 149.542 44 142 44H16C8.45753 44 4.68629 44 2.34315 41.6569C0 39.3137 0 35.5425 0 28V16Z" fill="#0077B5"/>
<path d="M62.401 26.668H66.793V28H60.763V15.454H62.401V26.668ZM69.3785 16.534C69.0665 16.534 68.8025 16.426 68.5865 16.21C68.3705 15.994 68.2625 15.73 68.2625 15.418C68.2625 15.106 68.3705 14.842 68.5865 14.626C68.8025 14.41 69.0665 14.302 69.3785 14.302C69.6785 14.302 69.9305 14.41 70.1345 14.626C70.3505 14.842 70.4585 15.106 70.4585 15.418C70.4585 15.73 70.3505 15.994 70.1345 16.21C69.9305 16.426 69.6785 16.534 69.3785 16.534ZM70.1705 18.136V28H68.5325V18.136H70.1705ZM77.7682 17.956C78.9682 17.956 79.9402 18.322 80.6842 19.054C81.4282 19.774 81.8002 20.818 81.8002 22.186V28H80.1802V22.42C80.1802 21.436 79.9342 20.686 79.4422 20.17C78.9502 19.642 78.2782 19.378 77.4262 19.378C76.5622 19.378 75.8722 19.648 75.3562 20.188C74.8522 20.728 74.6002 21.514 74.6002 22.546V28H72.9622V18.136H74.6002V19.54C74.9242 19.036 75.3622 18.646 75.9142 18.37C76.4782 18.094 77.0962 17.956 77.7682 17.956ZM89.9838 28L86.1138 23.644V28H84.4758V14.68H86.1138V22.51L89.9118 18.136H92.1978L87.5538 23.05L92.2158 28H89.9838ZM102.74 22.69C102.74 23.002 102.722 23.332 102.686 23.68H94.8015C94.8615 24.652 95.1915 25.414 95.7915 25.966C96.4035 26.506 97.1415 26.776 98.0055 26.776C98.7135 26.776 99.3015 26.614 99.7695 26.29C100.25 25.954 100.586 25.51 100.778 24.958H102.542C102.278 25.906 101.75 26.68 100.958 27.28C100.166 27.868 99.1815 28.162 98.0055 28.162C97.0695 28.162 96.2295 27.952 95.4855 27.532C94.7535 27.112 94.1775 26.518 93.7575 25.75C93.3375 24.97 93.1275 24.07 93.1275 23.05C93.1275 22.03 93.3315 21.136 93.7395 20.368C94.1475 19.6 94.7175 19.012 95.4495 18.604C96.1935 18.184 97.0455 17.974 98.0055 17.974C98.9415 17.974 99.7695 18.178 100.49 18.586C101.21 18.994 101.762 19.558 102.146 20.278C102.542 20.986 102.74 21.79 102.74 22.69ZM101.048 22.348C101.048 21.724 100.91 21.19 100.634 20.746C100.358 20.29 99.9795 19.948 99.4995 19.72C99.0315 19.48 98.5095 19.36 97.9335 19.36C97.1055 19.36 96.3975 19.624 95.8095 20.152C95.2335 20.68 94.9035 21.412 94.8195 22.348H101.048ZM104.29 23.032C104.29 22.024 104.494 21.142 104.902 20.386C105.31 19.618 105.868 19.024 106.576 18.604C107.296 18.184 108.1 17.974 108.988 17.974C109.756 17.974 110.47 18.154 111.13 18.514C111.79 18.862 112.294 19.324 112.642 19.9V14.68H114.298V28H112.642V26.146C112.318 26.734 111.838 27.22 111.202 27.604C110.566 27.976 109.822 28.162 108.97 28.162C108.094 28.162 107.296 27.946 106.576 27.514C105.868 27.082 105.31 26.476 104.902 25.696C104.494 24.916 104.29 24.028 104.29 23.032ZM112.642 23.05C112.642 22.306 112.492 21.658 112.192 21.106C111.892 20.554 111.484 20.134 110.968 19.846C110.464 19.546 109.906 19.396 109.294 19.396C108.682 19.396 108.124 19.54 107.62 19.828C107.116 20.116 106.714 20.536 106.414 21.088C106.114 21.64 105.964 22.288 105.964 23.032C105.964 23.788 106.114 24.448 106.414 25.012C106.714 25.564 107.116 25.99 107.62 26.29C108.124 26.578 108.682 26.722 109.294 26.722C109.906 26.722 110.464 26.578 110.968 26.29C111.484 25.99 111.892 25.564 112.192 25.012C112.492 24.448 112.642 23.794 112.642 23.05ZM118.704 15.454V28H117.066V15.454H118.704ZM126.301 17.956C127.501 17.956 128.473 18.322 129.217 19.054C129.961 19.774 130.333 20.818 130.333 22.186V28H128.713V22.42C128.713 21.436 128.467 20.686 127.975 20.17C127.483 19.642 126.811 19.378 125.959 19.378C125.095 19.378 124.405 19.648 123.889 20.188C123.385 20.728 123.133 21.514 123.133 22.546V28H121.495V18.136H123.133V19.54C123.457 19.036 123.895 18.646 124.447 18.37C125.011 18.094 125.629 17.956 126.301 17.956Z" fill="white"/>
<path d="M25.1878 17.197C26.4458 17.197 27.4657 16.2174 27.4657 15.009C27.4657 13.8006 26.4458 12.821 25.1878 12.821C23.9297 12.821 22.9099 13.8006 22.9099 15.009C22.9099 16.2174 23.9297 17.197 25.1878 17.197Z" fill="white"/>
<path d="M29.6166 18.855V30.994H33.5405V24.991C33.5405 23.407 33.8507 21.873 35.8955 21.873C37.9121 21.873 37.937 23.684 37.937 25.091V30.995H41.863V24.338C41.863 21.068 41.1301 18.555 37.151 18.555C35.2406 18.555 33.9601 19.562 33.4364 20.515H33.3833V18.855H29.6166ZM23.2222 18.855H27.1523V30.994H23.2222V18.855Z" fill="white"/>
</svg>
