<svg width="200" height="60" viewBox="0 0 200 60" fill="none" xmlns="http://www.w3.org/2000/svg"><path d="M0 16C0 8.45753 0 4.68629 2.34315 2.34315C4.68629 0 8.45753 0 16 0H184C191.542 0 195.314 0 197.657 2.34315C200 4.68629 200 8.45753 200 16V44C200 51.5425 200 55.3137 197.657 57.6569C195.314 60 191.542 60 184 60H16C8.45753 60 4.68629 60 2.34315 57.6569C0 55.3137 0 51.5425 0 44V16Z" fill="#0077B5"/><path d="M92.8885 34.36H97.3685V37H89.4685V22.96H92.8885V34.36ZM100.72 24.68C100.12 24.68 99.6264 24.5067 99.2398 24.16C98.8664 23.8 98.6798 23.36 98.6798 22.84C98.6798 22.3067 98.8664 21.8667 99.2398 21.52C99.6264 21.16 100.12 20.98 100.72 20.98C101.306 20.98 101.786 21.16 102.16 21.52C102.546 21.8667 102.74 22.3067 102.74 22.84C102.74 23.36 102.546 23.8 102.16 24.16C101.786 24.5067 101.306 24.68 100.72 24.68ZM102.42 25.84V37H98.9998V25.84H102.42ZM111.698 25.72C113.005 25.72 114.045 26.1467 114.818 27C115.605 27.84 115.998 29 115.998 30.48V37H112.598V30.94C112.598 30.1933 112.405 29.6133 112.018 29.2C111.632 28.7867 111.112 28.58 110.458 28.58C109.805 28.58 109.285 28.7867 108.898 29.2C108.512 29.6133 108.318 30.1933 108.318 30.94V37H104.898V25.84H108.318V27.32C108.665 26.8267 109.132 26.44 109.718 26.16C110.305 25.8667 110.965 25.72 111.698 25.72ZM125.195 37L121.795 32.32V37H118.375V22.2H121.795V30.38L125.175 25.84H129.395L124.755 31.44L129.435 37H125.195ZM141.258 31.24C141.258 31.56 141.238 31.8933 141.198 32.24H133.458C133.511 32.9333 133.731 33.4667 134.118 33.84C134.518 34.2 135.005 34.38 135.578 34.38C136.431 34.38 137.025 34.02 137.358 33.3H140.998C140.811 34.0333 140.471 34.6933 139.978 35.28C139.498 35.8667 138.891 36.3267 138.158 36.66C137.425 36.9933 136.605 37.16 135.698 37.16C134.605 37.16 133.631 36.9267 132.778 36.46C131.925 35.9933 131.258 35.3267 130.778 34.46C130.298 33.5933 130.058 32.58 130.058 31.42C130.058 30.26 130.291 29.2467 130.758 28.38C131.238 27.5133 131.905 26.8467 132.758 26.38C133.611 25.9133 134.591 25.68 135.698 25.68C136.778 25.68 137.738 25.9067 138.578 26.36C139.418 26.8133 140.071 27.46 140.538 28.3C141.018 29.14 141.258 30.12 141.258 31.24ZM137.758 30.34C137.758 29.7533 137.558 29.2867 137.158 28.94C136.758 28.5933 136.258 28.42 135.658 28.42C135.085 28.42 134.598 28.5867 134.198 28.92C133.811 29.2533 133.571 29.7267 133.478 30.34H137.758ZM142.382 31.4C142.382 30.2533 142.596 29.2467 143.022 28.38C143.462 27.5133 144.056 26.8467 144.802 26.38C145.549 25.9133 146.382 25.68 147.302 25.68C148.036 25.68 148.702 25.8333 149.302 26.14C149.916 26.4467 150.396 26.86 150.742 27.38V22.2H154.162V37H150.742V35.4C150.422 35.9333 149.962 36.36 149.362 36.68C148.776 37 148.089 37.16 147.302 37.16C146.382 37.16 145.549 36.9267 144.802 36.46C144.056 35.98 143.462 35.3067 143.022 34.44C142.596 33.56 142.382 32.5467 142.382 31.4ZM150.742 31.42C150.742 30.5667 150.502 29.8933 150.022 29.4C149.556 28.9067 148.982 28.66 148.302 28.66C147.622 28.66 147.042 28.9067 146.562 29.4C146.096 29.88 145.862 30.5467 145.862 31.4C145.862 32.2533 146.096 32.9333 146.562 33.44C147.042 33.9333 147.622 34.18 148.302 34.18C148.982 34.18 149.556 33.9333 150.022 33.44C150.502 32.9467 150.742 32.2733 150.742 31.42ZM160.056 22.96V37H156.636V22.96H160.056ZM169.335 25.72C170.642 25.72 171.682 26.1467 172.455 27C173.242 27.84 173.635 29 173.635 30.48V37H170.235V30.94C170.235 30.1933 170.042 29.6133 169.655 29.2C169.268 28.7867 168.748 28.58 168.095 28.58C167.442 28.58 166.922 28.7867 166.535 29.2C166.148 29.6133 165.955 30.1933 165.955 30.94V37H162.535V25.84H165.955V27.32C166.302 26.8267 166.768 26.44 167.355 26.16C167.942 25.8667 168.602 25.72 169.335 25.72Z" fill="white"/><circle cx="43" cy="30" r="20" fill="white"/><path d="M35.983 25.197C37.1914 25.197 38.171 24.2174 38.171 23.009C38.171 21.8006 37.1914 20.821 35.983 20.821C34.7746 20.821 33.795 21.8006 33.795 23.009C33.795 24.2174 34.7746 25.197 35.983 25.197Z" fill="#0077B5"/><path d="M40.237 26.855V38.994H44.006V32.991C44.006 31.407 44.304 29.873 46.268 29.873C48.205 29.873 48.229 31.684 48.229 33.091V38.995H52V32.338C52 29.068 51.296 26.555 47.474 26.555C45.639 26.555 44.409 27.562 43.906 28.515H43.855V26.855H40.237ZM34.095 26.855H37.87V38.994H34.095V26.855Z" fill="#0077B5"/></svg>
