<svg width="158" height="44" viewBox="0 0 158 44" fill="none" xmlns="http://www.w3.org/2000/svg">
<path d="M0 16C0 8.45753 0 4.68629 2.34315 2.34315C4.68629 0 8.45753 0 16 0H142C149.542 0 153.314 0 155.657 2.34315C158 4.68629 158 8.45753 158 16V28C158 35.5425 158 39.3137 155.657 41.6569C153.314 44 149.542 44 142 44H16C8.45753 44 4.68629 44 2.34315 41.6569C0 39.3137 0 35.5425 0 28V16Z" fill="#0077B5"/>
<path d="M68.024 26.668H72.416V28H66.386V15.454H68.024V26.668ZM75.0015 16.534C74.6895 16.534 74.4255 16.426 74.2095 16.21C73.9935 15.994 73.8855 15.73 73.8855 15.418C73.8855 15.106 73.9935 14.842 74.2095 14.626C74.4255 14.41 74.6895 14.302 75.0015 14.302C75.3015 14.302 75.5535 14.41 75.7575 14.626C75.9735 14.842 76.0815 15.106 76.0815 15.418C76.0815 15.73 75.9735 15.994 75.7575 16.21C75.5535 16.426 75.3015 16.534 75.0015 16.534ZM75.7935 18.136V28H74.1555V18.136H75.7935ZM83.3912 17.956C84.5912 17.956 85.5632 18.322 86.3072 19.054C87.0512 19.774 87.4232 20.818 87.4232 22.186V28H85.8032V22.42C85.8032 21.436 85.5572 20.686 85.0652 20.17C84.5732 19.642 83.9012 19.378 83.0492 19.378C82.1852 19.378 81.4952 19.648 80.9792 20.188C80.4752 20.728 80.2232 21.514 80.2232 22.546V28H78.5852V18.136H80.2232V19.54C80.5472 19.036 80.9852 18.646 81.5372 18.37C82.1012 18.094 82.7192 17.956 83.3912 17.956ZM95.6069 28L91.7369 23.644V28H90.0989V14.68H91.7369V22.51L95.5349 18.136H97.8209L93.1769 23.05L97.8389 28H95.6069ZM108.363 22.69C108.363 23.002 108.345 23.332 108.309 23.68H100.425C100.485 24.652 100.815 25.414 101.415 25.966C102.027 26.506 102.765 26.776 103.629 26.776C104.337 26.776 104.925 26.614 105.393 26.29C105.873 25.954 106.209 25.51 106.401 24.958H108.165C107.901 25.906 107.373 26.68 106.581 27.28C105.789 27.868 104.805 28.162 103.629 28.162C102.693 28.162 101.853 27.952 101.109 27.532C100.377 27.112 99.8006 26.518 99.3806 25.75C98.9606 24.97 98.7506 24.07 98.7506 23.05C98.7506 22.03 98.9546 21.136 99.3626 20.368C99.7706 19.6 100.341 19.012 101.073 18.604C101.817 18.184 102.669 17.974 103.629 17.974C104.565 17.974 105.393 18.178 106.113 18.586C106.833 18.994 107.385 19.558 107.769 20.278C108.165 20.986 108.363 21.79 108.363 22.69ZM106.671 22.348C106.671 21.724 106.533 21.19 106.257 20.746C105.981 20.29 105.603 19.948 105.123 19.72C104.655 19.48 104.133 19.36 103.557 19.36C102.729 19.36 102.021 19.624 101.433 20.152C100.857 20.68 100.527 21.412 100.443 22.348H106.671ZM109.913 23.032C109.913 22.024 110.117 21.142 110.525 20.386C110.933 19.618 111.491 19.024 112.199 18.604C112.919 18.184 113.723 17.974 114.611 17.974C115.379 17.974 116.093 18.154 116.753 18.514C117.413 18.862 117.917 19.324 118.265 19.9V14.68H119.921V28H118.265V26.146C117.941 26.734 117.461 27.22 116.825 27.604C116.189 27.976 115.445 28.162 114.593 28.162C113.717 28.162 112.919 27.946 112.199 27.514C111.491 27.082 110.933 26.476 110.525 25.696C110.117 24.916 109.913 24.028 109.913 23.032ZM118.265 23.05C118.265 22.306 118.115 21.658 117.815 21.106C117.515 20.554 117.107 20.134 116.591 19.846C116.087 19.546 115.529 19.396 114.917 19.396C114.305 19.396 113.747 19.54 113.243 19.828C112.739 20.116 112.337 20.536 112.037 21.088C111.737 21.64 111.587 22.288 111.587 23.032C111.587 23.788 111.737 24.448 112.037 25.012C112.337 25.564 112.739 25.99 113.243 26.29C113.747 26.578 114.305 26.722 114.917 26.722C115.529 26.722 116.087 26.578 116.591 26.29C117.107 25.99 117.515 25.564 117.815 25.012C118.115 24.448 118.265 23.794 118.265 23.05ZM124.327 15.454V28H122.689V15.454H124.327ZM131.924 17.956C133.124 17.956 134.096 18.322 134.84 19.054C135.584 19.774 135.956 20.818 135.956 22.186V28H134.336V22.42C134.336 21.436 134.09 20.686 133.598 20.17C133.106 19.642 132.434 19.378 131.582 19.378C130.718 19.378 130.028 19.648 129.512 20.188C129.008 20.728 128.756 21.514 128.756 22.546V28H127.118V18.136H128.756V19.54C129.08 19.036 129.518 18.646 130.07 18.37C130.634 18.094 131.252 17.956 131.924 17.956Z" fill="white"/>
<path d="M25.1878 17.197C26.4458 17.197 27.4657 16.2174 27.4657 15.009C27.4657 13.8006 26.4458 12.821 25.1878 12.821C23.9297 12.821 22.9099 13.8006 22.9099 15.009C22.9099 16.2174 23.9297 17.197 25.1878 17.197Z" fill="white"/>
<path d="M29.6166 18.855V30.994H33.5405V24.991C33.5405 23.407 33.8507 21.873 35.8955 21.873C37.9121 21.873 37.937 23.684 37.937 25.091V30.995H41.863V24.338C41.863 21.068 41.1301 18.555 37.151 18.555C35.2406 18.555 33.9601 19.562 33.4364 20.515H33.3833V18.855H29.6166ZM23.2222 18.855H27.1523V30.994H23.2222V18.855Z" fill="white"/>
</svg>
