<svg width="158" height="44" viewBox="0 0 158 44" fill="none" xmlns="http://www.w3.org/2000/svg">
<path d="M0 16C0 8.45753 0 4.68629 2.34315 2.34315C4.68629 0 8.45753 0 16 0H142C149.542 0 153.314 0 155.657 2.34315C158 4.68629 158 8.45753 158 16V28C158 35.5425 158 39.3137 155.657 41.6569C153.314 44 149.542 44 142 44H16C8.45753 44 4.68629 44 2.34315 41.6569C0 39.3137 0 35.5425 0 28V16Z" fill="#02C39A"/>
<path d="M73.774 19.126C73.774 20.17 73.414 21.04 72.694 21.736C71.986 22.42 70.9 22.762 69.436 22.762H67.024V28H65.386V15.454H69.436C70.852 15.454 71.926 15.796 72.658 16.48C73.402 17.164 73.774 18.046 73.774 19.126ZM69.436 21.412C70.348 21.412 71.02 21.214 71.452 20.818C71.884 20.422 72.1 19.858 72.1 19.126C72.1 17.578 71.212 16.804 69.436 16.804H67.024V21.412H69.436ZM80.1118 28.162C79.1878 28.162 78.3478 27.952 77.5918 27.532C76.8478 27.112 76.2598 26.518 75.8278 25.75C75.4078 24.97 75.1978 24.07 75.1978 23.05C75.1978 22.042 75.4138 21.154 75.8458 20.386C76.2898 19.606 76.8898 19.012 77.6458 18.604C78.4018 18.184 79.2478 17.974 80.1838 17.974C81.1198 17.974 81.9658 18.184 82.7218 18.604C83.4778 19.012 84.0718 19.6 84.5038 20.368C84.9478 21.136 85.1698 22.03 85.1698 23.05C85.1698 24.07 84.9418 24.97 84.4858 25.75C84.0418 26.518 83.4358 27.112 82.6678 27.532C81.8998 27.952 81.0478 28.162 80.1118 28.162ZM80.1118 26.722C80.6998 26.722 81.2518 26.584 81.7678 26.308C82.2838 26.032 82.6978 25.618 83.0098 25.066C83.3338 24.514 83.4958 23.842 83.4958 23.05C83.4958 22.258 83.3398 21.586 83.0278 21.034C82.7158 20.482 82.3078 20.074 81.8038 19.81C81.2998 19.534 80.7538 19.396 80.1658 19.396C79.5658 19.396 79.0138 19.534 78.5098 19.81C78.0178 20.074 77.6218 20.482 77.3218 21.034C77.0218 21.586 76.8718 22.258 76.8718 23.05C76.8718 23.854 77.0158 24.532 77.3038 25.084C77.6038 25.636 77.9998 26.05 78.4918 26.326C78.9838 26.59 79.5238 26.722 80.1118 26.722ZM88.9615 19.738C89.2495 19.174 89.6575 18.736 90.1855 18.424C90.7255 18.112 91.3795 17.956 92.1475 17.956V19.648H91.7155C89.8795 19.648 88.9615 20.644 88.9615 22.636V28H87.3235V18.136H88.9615V19.738ZM96.0363 19.486V25.3C96.0363 25.78 96.1383 26.122 96.3423 26.326C96.5463 26.518 96.9003 26.614 97.4043 26.614H98.6103V28H97.1343C96.2223 28 95.5383 27.79 95.0823 27.37C94.6263 26.95 94.3983 26.26 94.3983 25.3V19.486H93.1203V18.136H94.3983V15.652H96.0363V18.136H98.6103V19.486H96.0363ZM104.609 19.486H102.539V28H100.901V19.486H99.623V18.136H100.901V17.434C100.901 16.33 101.183 15.526 101.747 15.022C102.323 14.506 103.241 14.248 104.501 14.248V15.616C103.781 15.616 103.271 15.76 102.971 16.048C102.683 16.324 102.539 16.786 102.539 17.434V18.136H104.609V19.486ZM110.821 28.162C109.897 28.162 109.057 27.952 108.301 27.532C107.557 27.112 106.969 26.518 106.537 25.75C106.117 24.97 105.907 24.07 105.907 23.05C105.907 22.042 106.123 21.154 106.555 20.386C106.999 19.606 107.599 19.012 108.355 18.604C109.111 18.184 109.957 17.974 110.893 17.974C111.829 17.974 112.675 18.184 113.431 18.604C114.187 19.012 114.781 19.6 115.213 20.368C115.657 21.136 115.879 22.03 115.879 23.05C115.879 24.07 115.651 24.97 115.195 25.75C114.751 26.518 114.145 27.112 113.377 27.532C112.609 27.952 111.757 28.162 110.821 28.162ZM110.821 26.722C111.409 26.722 111.961 26.584 112.477 26.308C112.993 26.032 113.407 25.618 113.719 25.066C114.043 24.514 114.205 23.842 114.205 23.05C114.205 22.258 114.049 21.586 113.737 21.034C113.425 20.482 113.017 20.074 112.513 19.81C112.009 19.534 111.463 19.396 110.875 19.396C110.275 19.396 109.723 19.534 109.219 19.81C108.727 20.074 108.331 20.482 108.031 21.034C107.731 21.586 107.581 22.258 107.581 23.05C107.581 23.854 107.725 24.532 108.013 25.084C108.313 25.636 108.709 26.05 109.201 26.326C109.693 26.59 110.233 26.722 110.821 26.722ZM119.67 14.68V28H118.032V14.68H119.67ZM123.308 16.534C122.996 16.534 122.732 16.426 122.516 16.21C122.3 15.994 122.192 15.73 122.192 15.418C122.192 15.106 122.3 14.842 122.516 14.626C122.732 14.41 122.996 14.302 123.308 14.302C123.608 14.302 123.86 14.41 124.064 14.626C124.28 14.842 124.388 15.106 124.388 15.418C124.388 15.73 124.28 15.994 124.064 16.21C123.86 16.426 123.608 16.534 123.308 16.534ZM124.1 18.136V28H122.462V18.136H124.1ZM131.194 28.162C130.27 28.162 129.43 27.952 128.674 27.532C127.93 27.112 127.342 26.518 126.91 25.75C126.49 24.97 126.28 24.07 126.28 23.05C126.28 22.042 126.496 21.154 126.928 20.386C127.372 19.606 127.972 19.012 128.728 18.604C129.484 18.184 130.33 17.974 131.266 17.974C132.202 17.974 133.048 18.184 133.804 18.604C134.56 19.012 135.154 19.6 135.586 20.368C136.03 21.136 136.252 22.03 136.252 23.05C136.252 24.07 136.024 24.97 135.568 25.75C135.124 26.518 134.518 27.112 133.75 27.532C132.982 27.952 132.13 28.162 131.194 28.162ZM131.194 26.722C131.782 26.722 132.334 26.584 132.85 26.308C133.366 26.032 133.78 25.618 134.092 25.066C134.416 24.514 134.578 23.842 134.578 23.05C134.578 22.258 134.422 21.586 134.11 21.034C133.798 20.482 133.39 20.074 132.886 19.81C132.382 19.534 131.836 19.396 131.248 19.396C130.648 19.396 130.096 19.534 129.592 19.81C129.1 20.074 128.704 20.482 128.404 21.034C128.104 21.586 127.954 22.258 127.954 23.05C127.954 23.854 128.098 24.532 128.386 25.084C128.686 25.636 129.082 26.05 129.574 26.326C130.066 26.59 130.606 26.722 131.194 26.722Z" fill="white"/>
<path d="M31 12C25.486 12 21 16.486 21 22C21 27.514 25.486 32 31 32C36.514 32 41 27.514 41 22C41 16.486 36.514 12 31 12ZM38.931 21H36.167C36.0436 18.8112 35.4313 16.678 34.375 14.757C35.5992 15.3291 36.6589 16.2014 37.4554 17.2929C38.252 18.3844 38.7596 19.6597 38.931 21ZM31.53 14.027C32.565 15.391 33.957 17.807 34.157 21H28.03C28.169 18.404 29.024 15.972 30.481 14.026C30.653 14.016 30.825 14 31 14C31.179 14 31.354 14.016 31.53 14.027ZM27.688 14.727C26.704 16.618 26.136 18.762 26.03 21H23.069C23.2418 19.6478 23.7566 18.3621 24.5649 17.2644C25.3732 16.1667 26.4481 15.2934 27.688 14.727ZM23.069 23H26.043C26.179 25.379 26.708 27.478 27.599 29.23C26.3812 28.6559 25.3277 27.7842 24.536 26.6953C23.7442 25.6064 23.2397 24.3355 23.069 23ZM30.45 29.973C29.049 28.275 28.222 25.896 28.041 23H34.154C33.946 25.773 33.037 28.196 31.551 29.972C31.369 29.984 31.187 30 31 30C30.814 30 30.633 29.984 30.45 29.973ZM34.461 29.201C35.416 27.407 35.999 25.3 36.152 23H38.93C38.7612 24.3243 38.264 25.5853 37.4834 26.6684C36.7029 27.7514 35.6639 28.622 34.461 29.201Z" fill="white"/>
</svg>
